<svg xmlns="http://www.w3.org/2000/svg" viewBox="0 0 240 240">
<defs>
  <linearGradient id="bg" x1="0" y1="0" x2="1" y2="1">
    <stop offset="0" stop-color="#fff7f8"/><stop offset="1" stop-color="#e8c0bb"/>
  </linearGradient>
  <linearGradient id="berry" x1="0" y1="0" x2="0" y2="1">
    <stop offset="0" stop-color="#ff8b8f"/><stop offset="1" stop-color="#bb3045"/>
  </linearGradient>
</defs>
<rect width="240" height="240" rx="34" fill="url(#bg)"/>
<ellipse cx="120" cy="199" rx="58" ry="13" fill="#704941" opacity=".12"/>
<path d="M82 94c0-28 22-52 38-52s38 24 38 52c0 37-26 90-38 90S82 131 82 94z" fill="url(#berry)" stroke="#9f2437" stroke-width="4"/>
<path d="M120 48c-15 0-30 10-39 22 16-5 26-2 39 4 13-6 23-9 39-4-9-12-24-22-39-22z" fill="#6ea54e"/>
<path d="M92 58l16 22M120 52v28M148 58l-16 22" stroke="#6ea54e" stroke-width="7" stroke-linecap="round"/>
<circle cx="103" cy="96" r="3.6" fill="#ffd9a0"/><circle cx="122" cy="92" r="3.6" fill="#ffd9a0"/><circle cx="137" cy="100" r="3.6" fill="#ffd9a0"/><circle cx="114" cy="111" r="3.6" fill="#ffd9a0"/><circle cx="130" cy="119" r="3.6" fill="#ffd9a0"/><circle cx="99" cy="126" r="3.6" fill="#ffd9a0"/><circle cx="143" cy="131" r="3.6" fill="#ffd9a0"/><circle cx="110" cy="142" r="3.6" fill="#ffd9a0"/><circle cx="126" cy="148" r="3.6" fill="#ffd9a0"/><circle cx="119" cy="161" r="3.6" fill="#ffd9a0"/>
</svg>