<svg xmlns="http://www.w3.org/2000/svg" viewBox="0 0 240 240">
<defs>
  <linearGradient id="bg" x1="0" y1="0" x2="1" y2="1">
    <stop offset="0" stop-color="#fff9f2"/><stop offset="1" stop-color="#d8bf9e"/>
  </linearGradient>
</defs>
<rect width="240" height="240" rx="34" fill="url(#bg)"/>
<ellipse cx="120" cy="198" rx="58" ry="13" fill="#7c5a43" opacity=".14"/>
<path d="M78 54h84l16 108c3 20-13 38-34 38h-48c-21 0-37-18-34-38z" fill="#f6efe8" stroke="#b69173" stroke-width="4"/>
<path d="M86 54h68l10 22H76z" fill="#efe0d2" stroke="#b69173" stroke-width="3"/>
<circle cx="120" cy="122" r="33" fill="#fff8ef" stroke="#dcc6b2" stroke-width="3"/>
<path d="M102 132c5-18 11-28 18-28 8 0 13 9 18 28-8-6-14-9-18-9-5 0-11 3-18 9z" fill="#d7b27c"/>
<path d="M116 98c2-5 5-8 10-8 4 0 8 3 10 8-5-2-8-3-10-3s-6 1-10 3z" fill="#b8895a"/>
<text x="120" y="175" text-anchor="middle" font-family="Georgia" font-size="16" fill="#7f5c42">FLOUR</text>
</svg>